<svg width="18" height="18" viewBox="0 0 18 18" fill="none" xmlns="http://www.w3.org/2000/svg">
<path fill-rule="evenodd" clip-rule="evenodd" d="M9.04362 0.000156236C11.5299 0.00744066 13.769 1.01998 15.3829 2.6444C17.0113 4.27611 18 6.51971 18 8.98913C18 11.4804 17.0113 13.7313 15.3611 15.363C13.7326 17.002 11.4717 18.0072 8.97092 18C7.15347 17.9927 5.4378 17.4391 3.99838 16.4775C2.56624 15.516 1.3958 14.1538 0.712439 12.5002C0.479806 11.9757 0.312601 11.393 0.181745 10.8175C0.0726979 10.2275 0 9.61559 0 8.98913C0 6.51243 1.0105 4.26154 2.63893 2.62983C4.28918 0.990837 6.52827 -0.0144126 9.04362 0.000156236ZM11.8583 4.8107C11.5634 4.38367 11.1539 4.00818 10.646 3.76522C10.1628 3.52225 9.59759 3.375 8.99146 3.375C8.53277 3.375 8.08227 3.45599 7.68092 3.6106C7.27956 3.76522 6.91097 3.98609 6.60791 4.25851C6.30485 4.52356 6.06731 4.85488 5.88711 5.21564C5.7151 5.59113 5.625 5.98871 5.625 6.39365C5.625 6.67343 5.76425 6.93112 5.95264 7.11518C6.15741 7.28452 6.44409 7.40969 6.75534 7.40969C7.05841 7.40969 7.34509 7.28452 7.54167 7.11518C7.75464 6.93112 7.88569 6.67343 7.88569 6.39365C7.88569 6.25376 7.91026 6.13596 7.9676 6.0108C8.03313 5.893 8.10684 5.7752 8.20514 5.69421C8.30343 5.60586 8.43448 5.52487 8.55734 5.47333L8.5869 5.46549C8.71836 5.43053 8.86199 5.39234 8.99146 5.39234C9.29453 5.39234 9.58121 5.51014 9.77779 5.69421C10.1628 6.03289 10.2201 6.61453 9.93342 7.01211C9.84891 7.12898 9.73344 7.22266 9.62387 7.31155C9.59538 7.33466 9.56729 7.35745 9.54025 7.38024C9.13071 7.68946 8.72116 8.00605 8.40172 8.52143C8.08227 9.02945 7.86931 9.73626 7.86931 10.7817C7.86931 11.0542 8.00036 11.3118 8.20514 11.5033C8.40172 11.68 8.6884 11.7904 8.99146 11.7904C9.30272 11.7904 9.59759 11.68 9.79417 11.5033C9.99894 11.3118 10.13 11.0542 10.13 10.7817C10.13 10.178 10.2365 9.78779 10.4003 9.51538C10.5805 9.24296 10.7853 9.07363 10.99 8.91165C11.1948 8.75704 11.3832 8.60978 11.5634 8.44781C11.7272 8.27847 11.891 8.10177 12.0139 7.88089C12.1286 7.70419 12.2105 7.49067 12.276 7.24771C12.4153 6.70288 12.4153 6.07706 12.2269 5.53959C12.1368 5.28927 12.0139 5.03158 11.8583 4.8107ZM8.99146 12.5929C8.68839 12.5929 8.40171 12.7107 8.20513 12.8874C8.00035 13.0789 7.8693 13.3292 7.8693 13.609C7.8693 13.8888 8.00035 14.1391 8.20513 14.3231C8.40171 14.5072 8.68839 14.625 8.99146 14.625C9.30271 14.625 9.59758 14.5072 9.79416 14.3231C9.99894 14.1391 10.13 13.8888 10.13 13.609C10.13 13.3292 9.99894 13.0789 9.79416 12.8874C9.59758 12.7107 9.30271 12.5929 8.99146 12.5929Z" fill="white"/>
</svg>
